<mxfile host="65bd71144e">
    <diagram id="zBbb_w2fufU70cdOGtND" name="1 oldal">
        <mxGraphModel dx="1054" dy="1139" grid="1" gridSize="10" guides="1" tooltips="1" connect="1" arrows="1" fold="1" page="0" pageScale="1" pageWidth="660" pageHeight="610" background="none" math="0" shadow="0">
            <root>
                <mxCell id="0"/>
                <mxCell id="1" parent="0"/>
                <mxCell id="2" value="" style="rounded=0;whiteSpace=wrap;html=1;fillColor=#5E5B61;fontColor=#FFFFFF;strokeColor=none;spacing=0;" parent="1" vertex="1">
                    <mxGeometry width="480" height="610" as="geometry"/>
                </mxCell>
                <mxCell id="3" value="Naive Shared Reduction" style="text;strokeColor=none;fillColor=none;align=center;verticalAlign=middle;rounded=0;fontFamily=klavika;fontSize=17;fontColor=#FFFFFF;" parent="1" vertex="1">
                    <mxGeometry x="210" width="60" height="30" as="geometry"/>
                </mxCell>
                <mxCell id="5" value="" style="rounded=0;whiteSpace=wrap;html=1;fillColor=#C23555;fontColor=#FFFFFF;strokeColor=none;" parent="1" vertex="1">
                    <mxGeometry x="10" y="30" width="380" height="90" as="geometry"/>
                </mxCell>
                <mxCell id="6" value="&lt;font face=&quot;Klavika&quot; style=&quot;font-size: 17px;&quot;&gt;Shared&lt;/font&gt;" style="text;html=1;strokeColor=none;fillColor=none;align=center;verticalAlign=middle;whiteSpace=wrap;rounded=0;fontSize=17;fontColor=#FFFFFF;" parent="1" vertex="1">
                    <mxGeometry x="145" y="30" width="60" height="30" as="geometry"/>
                </mxCell>
                <mxCell id="142" value="" style="rounded=0;whiteSpace=wrap;html=1;fillColor=#262626;fontColor=#FFFFFF;strokeColor=none;" parent="1" vertex="1">
                    <mxGeometry x="20" y="60" width="40" height="50" as="geometry"/>
                </mxCell>
                <mxCell id="147" value="5" style="text;html=1;strokeColor=none;fillColor=none;align=center;verticalAlign=middle;whiteSpace=wrap;rounded=0;fontFamily=Klavika;fontSize=17;fontColor=#FFFFFF;" parent="1" vertex="1">
                    <mxGeometry x="27.5" y="70" width="25" height="30" as="geometry"/>
                </mxCell>
                <mxCell id="305" value="" style="endArrow=classic;html=1;dashed=1;strokeColor=#FFFFFF;fontColor=#FFFFFF;entryX=0.5;entryY=0;entryDx=0;entryDy=0;exitX=0.5;exitY=1;exitDx=0;exitDy=0;" parent="1" source="142" target="339" edge="1">
                    <mxGeometry width="50" height="50" relative="1" as="geometry">
                        <mxPoint x="450" y="50" as="sourcePoint"/>
                        <mxPoint x="450" y="360" as="targetPoint"/>
                    </mxGeometry>
                </mxCell>
                <mxCell id="315" value="" style="rounded=0;whiteSpace=wrap;html=1;fillColor=#262626;fontColor=#FFFFFF;strokeColor=none;" parent="1" vertex="1">
                    <mxGeometry x="65" y="60" width="40" height="50" as="geometry"/>
                </mxCell>
                <mxCell id="316" value="13" style="text;html=1;strokeColor=none;fillColor=none;align=center;verticalAlign=middle;whiteSpace=wrap;rounded=0;fontFamily=Klavika;fontSize=17;fontColor=#FFFFFF;" parent="1" vertex="1">
                    <mxGeometry x="72.5" y="70" width="25" height="30" as="geometry"/>
                </mxCell>
                <mxCell id="339" value="" style="ellipse;whiteSpace=wrap;html=1;fillColor=#4F1623;strokeColor=none;" parent="1" vertex="1">
                    <mxGeometry x="20" y="130" width="40" height="50" as="geometry"/>
                </mxCell>
                <mxCell id="340" value="0" style="text;html=1;strokeColor=none;fillColor=none;align=center;verticalAlign=middle;whiteSpace=wrap;rounded=0;fontFamily=Klavika;fontSize=17;fontColor=#FFFFFF;" parent="1" vertex="1">
                    <mxGeometry x="27.5" y="140" width="25" height="30" as="geometry"/>
                </mxCell>
                <mxCell id="341" value="" style="edgeStyle=segmentEdgeStyle;endArrow=classic;html=1;curved=0;rounded=1;endSize=8;startSize=8;entryX=1;entryY=0.5;entryDx=0;entryDy=0;exitX=0.5;exitY=1;exitDx=0;exitDy=0;strokeColor=#FFFFFF;fontColor=#FFFFFF;dashed=1;" parent="1" source="315" target="339" edge="1">
                    <mxGeometry width="50" height="50" relative="1" as="geometry">
                        <mxPoint x="270" y="260" as="sourcePoint"/>
                        <mxPoint x="320" y="210" as="targetPoint"/>
                        <Array as="points">
                            <mxPoint x="85" y="155"/>
                        </Array>
                    </mxGeometry>
                </mxCell>
                <mxCell id="342" value="" style="rounded=0;whiteSpace=wrap;html=1;fillColor=#262626;fontColor=#FFFFFF;strokeColor=none;" parent="1" vertex="1">
                    <mxGeometry x="110" y="60" width="40" height="50" as="geometry"/>
                </mxCell>
                <mxCell id="343" value="8" style="text;html=1;strokeColor=none;fillColor=none;align=center;verticalAlign=middle;whiteSpace=wrap;rounded=0;fontFamily=Klavika;fontSize=17;fontColor=#FFFFFF;" parent="1" vertex="1">
                    <mxGeometry x="117.5" y="70" width="25" height="30" as="geometry"/>
                </mxCell>
                <mxCell id="344" value="" style="endArrow=classic;html=1;dashed=1;strokeColor=#FFFFFF;fontColor=#FFFFFF;entryX=0.5;entryY=0;entryDx=0;entryDy=0;exitX=0.5;exitY=1;exitDx=0;exitDy=0;" parent="1" source="342" target="347" edge="1">
                    <mxGeometry width="50" height="50" relative="1" as="geometry">
                        <mxPoint x="540" y="50" as="sourcePoint"/>
                        <mxPoint x="540" y="360" as="targetPoint"/>
                    </mxGeometry>
                </mxCell>
                <mxCell id="345" value="" style="rounded=0;whiteSpace=wrap;html=1;fillColor=#262626;fontColor=#FFFFFF;strokeColor=none;" parent="1" vertex="1">
                    <mxGeometry x="155" y="60" width="40" height="50" as="geometry"/>
                </mxCell>
                <mxCell id="346" value="2" style="text;html=1;strokeColor=none;fillColor=none;align=center;verticalAlign=middle;whiteSpace=wrap;rounded=0;fontFamily=Klavika;fontSize=17;fontColor=#FFFFFF;" parent="1" vertex="1">
                    <mxGeometry x="162.5" y="70" width="25" height="30" as="geometry"/>
                </mxCell>
                <mxCell id="347" value="" style="ellipse;whiteSpace=wrap;html=1;fillColor=#4F1623;strokeColor=none;" parent="1" vertex="1">
                    <mxGeometry x="110" y="130" width="40" height="50" as="geometry"/>
                </mxCell>
                <mxCell id="348" value="2" style="text;html=1;strokeColor=none;fillColor=none;align=center;verticalAlign=middle;whiteSpace=wrap;rounded=0;fontFamily=Klavika;fontSize=17;fontColor=#FFFFFF;" parent="1" vertex="1">
                    <mxGeometry x="117.5" y="140" width="25" height="30" as="geometry"/>
                </mxCell>
                <mxCell id="349" value="" style="edgeStyle=segmentEdgeStyle;endArrow=classic;html=1;curved=0;rounded=1;endSize=8;startSize=8;entryX=1;entryY=0.5;entryDx=0;entryDy=0;exitX=0.5;exitY=1;exitDx=0;exitDy=0;strokeColor=#FFFFFF;fontColor=#FFFFFF;dashed=1;" parent="1" source="345" target="347" edge="1">
                    <mxGeometry width="50" height="50" relative="1" as="geometry">
                        <mxPoint x="360" y="260" as="sourcePoint"/>
                        <mxPoint x="410" y="210" as="targetPoint"/>
                        <Array as="points">
                            <mxPoint x="175" y="155"/>
                        </Array>
                    </mxGeometry>
                </mxCell>
                <mxCell id="350" value="" style="rounded=0;whiteSpace=wrap;html=1;fillColor=#262626;fontColor=#FFFFFF;strokeColor=none;" parent="1" vertex="1">
                    <mxGeometry x="200" y="60" width="40" height="50" as="geometry"/>
                </mxCell>
                <mxCell id="351" value="7" style="text;html=1;strokeColor=none;fillColor=none;align=center;verticalAlign=middle;whiteSpace=wrap;rounded=0;fontFamily=Klavika;fontSize=17;fontColor=#FFFFFF;" parent="1" vertex="1">
                    <mxGeometry x="207.5" y="70" width="25" height="30" as="geometry"/>
                </mxCell>
                <mxCell id="352" value="" style="endArrow=classic;html=1;dashed=1;strokeColor=#FFFFFF;fontColor=#FFFFFF;entryX=0.5;entryY=0;entryDx=0;entryDy=0;exitX=0.5;exitY=1;exitDx=0;exitDy=0;" parent="1" source="350" target="355" edge="1">
                    <mxGeometry width="50" height="50" relative="1" as="geometry">
                        <mxPoint x="630" y="50" as="sourcePoint"/>
                        <mxPoint x="630" y="360" as="targetPoint"/>
                    </mxGeometry>
                </mxCell>
                <mxCell id="353" value="" style="rounded=0;whiteSpace=wrap;html=1;fillColor=#262626;fontColor=#FFFFFF;strokeColor=none;" parent="1" vertex="1">
                    <mxGeometry x="245" y="60" width="40" height="50" as="geometry"/>
                </mxCell>
                <mxCell id="354" value="42" style="text;html=1;strokeColor=none;fillColor=none;align=center;verticalAlign=middle;whiteSpace=wrap;rounded=0;fontFamily=Klavika;fontSize=17;fontColor=#FFFFFF;" parent="1" vertex="1">
                    <mxGeometry x="252.5" y="70" width="25" height="30" as="geometry"/>
                </mxCell>
                <mxCell id="355" value="" style="ellipse;whiteSpace=wrap;html=1;fillColor=#4F1623;strokeColor=none;" parent="1" vertex="1">
                    <mxGeometry x="200" y="130" width="40" height="50" as="geometry"/>
                </mxCell>
                <mxCell id="356" value="4" style="text;html=1;strokeColor=none;fillColor=none;align=center;verticalAlign=middle;whiteSpace=wrap;rounded=0;fontFamily=Klavika;fontSize=17;fontColor=#FFFFFF;" parent="1" vertex="1">
                    <mxGeometry x="207.5" y="140" width="25" height="30" as="geometry"/>
                </mxCell>
                <mxCell id="357" value="" style="edgeStyle=segmentEdgeStyle;endArrow=classic;html=1;curved=0;rounded=1;endSize=8;startSize=8;entryX=1;entryY=0.5;entryDx=0;entryDy=0;exitX=0.5;exitY=1;exitDx=0;exitDy=0;strokeColor=#FFFFFF;fontColor=#FFFFFF;dashed=1;" parent="1" source="353" target="355" edge="1">
                    <mxGeometry width="50" height="50" relative="1" as="geometry">
                        <mxPoint x="450" y="260" as="sourcePoint"/>
                        <mxPoint x="500" y="210" as="targetPoint"/>
                        <Array as="points">
                            <mxPoint x="265" y="155"/>
                        </Array>
                    </mxGeometry>
                </mxCell>
                <mxCell id="358" value="" style="rounded=0;whiteSpace=wrap;html=1;fillColor=#262626;fontColor=#FFFFFF;strokeColor=none;" parent="1" vertex="1">
                    <mxGeometry x="290" y="60" width="40" height="50" as="geometry"/>
                </mxCell>
                <mxCell id="359" value="23" style="text;html=1;strokeColor=none;fillColor=none;align=center;verticalAlign=middle;whiteSpace=wrap;rounded=0;fontFamily=Klavika;fontSize=17;fontColor=#FFFFFF;" parent="1" vertex="1">
                    <mxGeometry x="297.5" y="70" width="25" height="30" as="geometry"/>
                </mxCell>
                <mxCell id="360" value="" style="endArrow=classic;html=1;dashed=1;strokeColor=#FFFFFF;fontColor=#FFFFFF;entryX=0.5;entryY=0;entryDx=0;entryDy=0;exitX=0.5;exitY=1;exitDx=0;exitDy=0;" parent="1" source="358" target="363" edge="1">
                    <mxGeometry width="50" height="50" relative="1" as="geometry">
                        <mxPoint x="720" y="50" as="sourcePoint"/>
                        <mxPoint x="720" y="360" as="targetPoint"/>
                    </mxGeometry>
                </mxCell>
                <mxCell id="361" value="" style="rounded=0;whiteSpace=wrap;html=1;fillColor=#262626;fontColor=#FFFFFF;strokeColor=none;" parent="1" vertex="1">
                    <mxGeometry x="335" y="60" width="40" height="50" as="geometry"/>
                </mxCell>
                <mxCell id="362" value="10" style="text;html=1;strokeColor=none;fillColor=none;align=center;verticalAlign=middle;whiteSpace=wrap;rounded=0;fontFamily=Klavika;fontSize=17;fontColor=#FFFFFF;" parent="1" vertex="1">
                    <mxGeometry x="342.5" y="70" width="25" height="30" as="geometry"/>
                </mxCell>
                <mxCell id="363" value="" style="ellipse;whiteSpace=wrap;html=1;fillColor=#4F1623;strokeColor=none;" parent="1" vertex="1">
                    <mxGeometry x="290" y="130" width="40" height="50" as="geometry"/>
                </mxCell>
                <mxCell id="364" value="6" style="text;html=1;strokeColor=none;fillColor=none;align=center;verticalAlign=middle;whiteSpace=wrap;rounded=0;fontFamily=Klavika;fontSize=17;fontColor=#FFFFFF;" parent="1" vertex="1">
                    <mxGeometry x="297.5" y="140" width="25" height="30" as="geometry"/>
                </mxCell>
                <mxCell id="365" value="" style="edgeStyle=segmentEdgeStyle;endArrow=classic;html=1;curved=0;rounded=1;endSize=8;startSize=8;entryX=1;entryY=0.5;entryDx=0;entryDy=0;exitX=0.5;exitY=1;exitDx=0;exitDy=0;strokeColor=#FFFFFF;fontColor=#FFFFFF;dashed=1;" parent="1" source="361" target="363" edge="1">
                    <mxGeometry width="50" height="50" relative="1" as="geometry">
                        <mxPoint x="540" y="260" as="sourcePoint"/>
                        <mxPoint x="590" y="210" as="targetPoint"/>
                        <Array as="points">
                            <mxPoint x="355" y="155"/>
                        </Array>
                    </mxGeometry>
                </mxCell>
                <mxCell id="366" value="" style="rounded=0;whiteSpace=wrap;html=1;fillColor=#C23555;fontColor=#FFFFFF;strokeColor=none;" parent="1" vertex="1">
                    <mxGeometry x="10" y="190" width="380" height="90" as="geometry"/>
                </mxCell>
                <mxCell id="367" value="&lt;font face=&quot;Klavika&quot; style=&quot;font-size: 17px;&quot;&gt;Shared&lt;/font&gt;" style="text;html=1;strokeColor=none;fillColor=none;align=center;verticalAlign=middle;whiteSpace=wrap;rounded=0;fontSize=17;fontColor=#FFFFFF;" parent="1" vertex="1">
                    <mxGeometry x="145" y="190" width="60" height="30" as="geometry"/>
                </mxCell>
                <mxCell id="368" value="" style="rounded=0;whiteSpace=wrap;html=1;fillColor=#262626;fontColor=#FFFFFF;strokeColor=none;" parent="1" vertex="1">
                    <mxGeometry x="20" y="220" width="40" height="50" as="geometry"/>
                </mxCell>
                <mxCell id="369" value="13" style="text;html=1;strokeColor=none;fillColor=none;align=center;verticalAlign=middle;whiteSpace=wrap;rounded=0;fontFamily=Klavika;fontSize=17;fontColor=#FFFFFF;" parent="1" vertex="1">
                    <mxGeometry x="27.5" y="230" width="25" height="30" as="geometry"/>
                </mxCell>
                <mxCell id="370" value="" style="endArrow=classic;html=1;dashed=1;strokeColor=#FFFFFF;fontColor=#FFFFFF;entryX=0.5;entryY=0;entryDx=0;entryDy=0;exitX=0.5;exitY=1;exitDx=0;exitDy=0;" parent="1" source="368" target="373" edge="1">
                    <mxGeometry width="50" height="50" relative="1" as="geometry">
                        <mxPoint x="450" y="210" as="sourcePoint"/>
                        <mxPoint x="450" y="520" as="targetPoint"/>
                    </mxGeometry>
                </mxCell>
                <mxCell id="371" value="" style="rounded=0;whiteSpace=wrap;html=1;fillColor=#262626;fontColor=#FFFFFF;strokeColor=none;" parent="1" vertex="1">
                    <mxGeometry x="65" y="220" width="40" height="50" as="geometry"/>
                </mxCell>
                <mxCell id="372" value="13" style="text;html=1;strokeColor=none;fillColor=none;align=center;verticalAlign=middle;whiteSpace=wrap;rounded=0;fontFamily=Klavika;fontSize=17;fontColor=#FFFFFF;" parent="1" vertex="1">
                    <mxGeometry x="72.5" y="230" width="25" height="30" as="geometry"/>
                </mxCell>
                <mxCell id="373" value="" style="ellipse;whiteSpace=wrap;html=1;fillColor=#4F1623;strokeColor=none;" parent="1" vertex="1">
                    <mxGeometry x="20" y="290" width="40" height="50" as="geometry"/>
                </mxCell>
                <mxCell id="374" value="0" style="text;html=1;strokeColor=none;fillColor=none;align=center;verticalAlign=middle;whiteSpace=wrap;rounded=0;fontFamily=Klavika;fontSize=17;fontColor=#FFFFFF;" parent="1" vertex="1">
                    <mxGeometry x="27.5" y="300" width="25" height="30" as="geometry"/>
                </mxCell>
                <mxCell id="375" value="" style="edgeStyle=segmentEdgeStyle;endArrow=classic;html=1;curved=0;rounded=1;endSize=8;startSize=8;entryX=1;entryY=0.5;entryDx=0;entryDy=0;strokeColor=#FFFFFF;fontColor=#FFFFFF;dashed=1;exitX=0.5;exitY=1;exitDx=0;exitDy=0;" parent="1" source="376" target="373" edge="1">
                    <mxGeometry width="50" height="50" relative="1" as="geometry">
                        <mxPoint x="270" y="420" as="sourcePoint"/>
                        <mxPoint x="320" y="370" as="targetPoint"/>
                        <Array as="points">
                            <mxPoint x="130" y="315"/>
                        </Array>
                    </mxGeometry>
                </mxCell>
                <mxCell id="376" value="" style="rounded=0;whiteSpace=wrap;html=1;fillColor=#262626;fontColor=#FFFFFF;strokeColor=none;" parent="1" vertex="1">
                    <mxGeometry x="110" y="220" width="40" height="50" as="geometry"/>
                </mxCell>
                <mxCell id="377" value="8" style="text;html=1;strokeColor=none;fillColor=none;align=center;verticalAlign=middle;whiteSpace=wrap;rounded=0;fontFamily=Klavika;fontSize=17;fontColor=#FFFFFF;" parent="1" vertex="1">
                    <mxGeometry x="117.5" y="230" width="25" height="30" as="geometry"/>
                </mxCell>
                <mxCell id="379" value="" style="rounded=0;whiteSpace=wrap;html=1;fillColor=#262626;fontColor=#FFFFFF;strokeColor=none;" parent="1" vertex="1">
                    <mxGeometry x="155" y="220" width="40" height="50" as="geometry"/>
                </mxCell>
                <mxCell id="380" value="2" style="text;html=1;strokeColor=none;fillColor=none;align=center;verticalAlign=middle;whiteSpace=wrap;rounded=0;fontFamily=Klavika;fontSize=17;fontColor=#FFFFFF;" parent="1" vertex="1">
                    <mxGeometry x="162.5" y="230" width="25" height="30" as="geometry"/>
                </mxCell>
                <mxCell id="384" value="" style="rounded=0;whiteSpace=wrap;html=1;fillColor=#262626;fontColor=#FFFFFF;strokeColor=none;" parent="1" vertex="1">
                    <mxGeometry x="200" y="220" width="40" height="50" as="geometry"/>
                </mxCell>
                <mxCell id="385" value="42" style="text;html=1;strokeColor=none;fillColor=none;align=center;verticalAlign=middle;whiteSpace=wrap;rounded=0;fontFamily=Klavika;fontSize=17;fontColor=#FFFFFF;" parent="1" vertex="1">
                    <mxGeometry x="207.5" y="230" width="25" height="30" as="geometry"/>
                </mxCell>
                <mxCell id="386" value="" style="endArrow=classic;html=1;dashed=1;strokeColor=#FFFFFF;fontColor=#FFFFFF;entryX=0.5;entryY=0;entryDx=0;entryDy=0;exitX=0.5;exitY=1;exitDx=0;exitDy=0;" parent="1" source="384" target="389" edge="1">
                    <mxGeometry width="50" height="50" relative="1" as="geometry">
                        <mxPoint x="630" y="210" as="sourcePoint"/>
                        <mxPoint x="630" y="520" as="targetPoint"/>
                    </mxGeometry>
                </mxCell>
                <mxCell id="387" value="" style="rounded=0;whiteSpace=wrap;html=1;fillColor=#262626;fontColor=#FFFFFF;strokeColor=none;" parent="1" vertex="1">
                    <mxGeometry x="245" y="220" width="40" height="50" as="geometry"/>
                </mxCell>
                <mxCell id="388" value="42" style="text;html=1;strokeColor=none;fillColor=none;align=center;verticalAlign=middle;whiteSpace=wrap;rounded=0;fontFamily=Klavika;fontSize=17;fontColor=#FFFFFF;" parent="1" vertex="1">
                    <mxGeometry x="252.5" y="230" width="25" height="30" as="geometry"/>
                </mxCell>
                <mxCell id="389" value="" style="ellipse;whiteSpace=wrap;html=1;fillColor=#4F1623;strokeColor=none;" parent="1" vertex="1">
                    <mxGeometry x="200" y="290" width="40" height="50" as="geometry"/>
                </mxCell>
                <mxCell id="390" value="4" style="text;html=1;strokeColor=none;fillColor=none;align=center;verticalAlign=middle;whiteSpace=wrap;rounded=0;fontFamily=Klavika;fontSize=17;fontColor=#FFFFFF;" parent="1" vertex="1">
                    <mxGeometry x="207.5" y="300" width="25" height="30" as="geometry"/>
                </mxCell>
                <mxCell id="391" value="" style="edgeStyle=segmentEdgeStyle;endArrow=classic;html=1;curved=0;rounded=1;endSize=8;startSize=8;entryX=1;entryY=0.5;entryDx=0;entryDy=0;exitX=0.5;exitY=1;exitDx=0;exitDy=0;strokeColor=#FFFFFF;fontColor=#FFFFFF;dashed=1;" parent="1" source="392" target="389" edge="1">
                    <mxGeometry width="50" height="50" relative="1" as="geometry">
                        <mxPoint x="450" y="420" as="sourcePoint"/>
                        <mxPoint x="500" y="370" as="targetPoint"/>
                        <Array as="points">
                            <mxPoint x="310" y="315"/>
                        </Array>
                    </mxGeometry>
                </mxCell>
                <mxCell id="392" value="" style="rounded=0;whiteSpace=wrap;html=1;fillColor=#262626;fontColor=#FFFFFF;strokeColor=none;" parent="1" vertex="1">
                    <mxGeometry x="290" y="220" width="40" height="50" as="geometry"/>
                </mxCell>
                <mxCell id="393" value="23" style="text;html=1;strokeColor=none;fillColor=none;align=center;verticalAlign=middle;whiteSpace=wrap;rounded=0;fontFamily=Klavika;fontSize=17;fontColor=#FFFFFF;" parent="1" vertex="1">
                    <mxGeometry x="297.5" y="230" width="25" height="30" as="geometry"/>
                </mxCell>
                <mxCell id="395" value="" style="rounded=0;whiteSpace=wrap;html=1;fillColor=#262626;fontColor=#FFFFFF;strokeColor=none;" parent="1" vertex="1">
                    <mxGeometry x="335" y="220" width="40" height="50" as="geometry"/>
                </mxCell>
                <mxCell id="396" value="10" style="text;html=1;strokeColor=none;fillColor=none;align=center;verticalAlign=middle;whiteSpace=wrap;rounded=0;fontFamily=Klavika;fontSize=17;fontColor=#FFFFFF;" parent="1" vertex="1">
                    <mxGeometry x="342.5" y="230" width="25" height="30" as="geometry"/>
                </mxCell>
                <mxCell id="400" value="" style="endArrow=classic;html=1;dashed=1;strokeColor=#FFFFFF;fontColor=#FFFFFF;entryX=0.5;entryY=0;entryDx=0;entryDy=0;exitX=0.5;exitY=1;exitDx=0;exitDy=0;" parent="1" source="339" target="368" edge="1">
                    <mxGeometry width="50" height="50" relative="1" as="geometry">
                        <mxPoint x="50" y="120" as="sourcePoint"/>
                        <mxPoint x="50" y="140" as="targetPoint"/>
                    </mxGeometry>
                </mxCell>
                <mxCell id="401" value="" style="endArrow=classic;html=1;dashed=1;strokeColor=#FFFFFF;fontColor=#FFFFFF;entryX=0.5;entryY=0;entryDx=0;entryDy=0;exitX=0.5;exitY=1;exitDx=0;exitDy=0;" parent="1" source="347" target="376" edge="1">
                    <mxGeometry width="50" height="50" relative="1" as="geometry">
                        <mxPoint x="50" y="190" as="sourcePoint"/>
                        <mxPoint x="50" y="230" as="targetPoint"/>
                    </mxGeometry>
                </mxCell>
                <mxCell id="402" value="" style="endArrow=classic;html=1;dashed=1;strokeColor=#FFFFFF;fontColor=#FFFFFF;entryX=0.5;entryY=0;entryDx=0;entryDy=0;exitX=0.5;exitY=1;exitDx=0;exitDy=0;" parent="1" source="355" target="384" edge="1">
                    <mxGeometry width="50" height="50" relative="1" as="geometry">
                        <mxPoint x="60" y="200" as="sourcePoint"/>
                        <mxPoint x="60" y="240" as="targetPoint"/>
                    </mxGeometry>
                </mxCell>
                <mxCell id="403" value="" style="endArrow=classic;html=1;dashed=1;strokeColor=#FFFFFF;fontColor=#FFFFFF;entryX=0.5;entryY=0;entryDx=0;entryDy=0;exitX=0.5;exitY=1;exitDx=0;exitDy=0;" parent="1" source="363" target="392" edge="1">
                    <mxGeometry width="50" height="50" relative="1" as="geometry">
                        <mxPoint x="70" y="210" as="sourcePoint"/>
                        <mxPoint x="70" y="250" as="targetPoint"/>
                    </mxGeometry>
                </mxCell>
                <mxCell id="404" value="" style="rounded=0;whiteSpace=wrap;html=1;fillColor=#C23555;fontColor=#FFFFFF;strokeColor=none;" parent="1" vertex="1">
                    <mxGeometry x="10" y="350" width="380" height="90" as="geometry"/>
                </mxCell>
                <mxCell id="405" value="&lt;font face=&quot;Klavika&quot; style=&quot;font-size: 17px;&quot;&gt;Shared&lt;/font&gt;" style="text;html=1;strokeColor=none;fillColor=none;align=center;verticalAlign=middle;whiteSpace=wrap;rounded=0;fontSize=17;fontColor=#FFFFFF;" parent="1" vertex="1">
                    <mxGeometry x="145" y="350" width="60" height="30" as="geometry"/>
                </mxCell>
                <mxCell id="406" value="" style="rounded=0;whiteSpace=wrap;html=1;fillColor=#262626;fontColor=#FFFFFF;strokeColor=none;" parent="1" vertex="1">
                    <mxGeometry x="20" y="380" width="40" height="50" as="geometry"/>
                </mxCell>
                <mxCell id="407" value="13" style="text;html=1;strokeColor=none;fillColor=none;align=center;verticalAlign=middle;whiteSpace=wrap;rounded=0;fontFamily=Klavika;fontSize=17;fontColor=#FFFFFF;" parent="1" vertex="1">
                    <mxGeometry x="27.5" y="390" width="25" height="30" as="geometry"/>
                </mxCell>
                <mxCell id="408" value="" style="endArrow=classic;html=1;dashed=1;strokeColor=#FFFFFF;fontColor=#FFFFFF;entryX=0.5;entryY=0;entryDx=0;entryDy=0;exitX=0.5;exitY=1;exitDx=0;exitDy=0;" parent="1" source="406" target="411" edge="1">
                    <mxGeometry width="50" height="50" relative="1" as="geometry">
                        <mxPoint x="450" y="370" as="sourcePoint"/>
                        <mxPoint x="450" y="680" as="targetPoint"/>
                    </mxGeometry>
                </mxCell>
                <mxCell id="409" value="" style="rounded=0;whiteSpace=wrap;html=1;fillColor=#262626;fontColor=#FFFFFF;strokeColor=none;" parent="1" vertex="1">
                    <mxGeometry x="65" y="380" width="40" height="50" as="geometry"/>
                </mxCell>
                <mxCell id="410" value="13" style="text;html=1;strokeColor=none;fillColor=none;align=center;verticalAlign=middle;whiteSpace=wrap;rounded=0;fontFamily=Klavika;fontSize=17;fontColor=#FFFFFF;" parent="1" vertex="1">
                    <mxGeometry x="72.5" y="390" width="25" height="30" as="geometry"/>
                </mxCell>
                <mxCell id="411" value="" style="ellipse;whiteSpace=wrap;html=1;fillColor=#4F1623;strokeColor=none;" parent="1" vertex="1">
                    <mxGeometry x="20" y="450" width="40" height="50" as="geometry"/>
                </mxCell>
                <mxCell id="412" value="0" style="text;html=1;strokeColor=none;fillColor=none;align=center;verticalAlign=middle;whiteSpace=wrap;rounded=0;fontFamily=Klavika;fontSize=17;fontColor=#FFFFFF;" parent="1" vertex="1">
                    <mxGeometry x="27.5" y="460" width="25" height="30" as="geometry"/>
                </mxCell>
                <mxCell id="413" value="" style="edgeStyle=segmentEdgeStyle;endArrow=classic;html=1;curved=0;rounded=1;endSize=8;startSize=8;entryX=1;entryY=0.5;entryDx=0;entryDy=0;strokeColor=#FFFFFF;fontColor=#FFFFFF;dashed=1;exitX=0.5;exitY=1;exitDx=0;exitDy=0;" parent="1" source="418" target="411" edge="1">
                    <mxGeometry width="50" height="50" relative="1" as="geometry">
                        <mxPoint x="270" y="580" as="sourcePoint"/>
                        <mxPoint x="320" y="530" as="targetPoint"/>
                        <Array as="points">
                            <mxPoint x="220" y="475"/>
                        </Array>
                    </mxGeometry>
                </mxCell>
                <mxCell id="414" value="" style="rounded=0;whiteSpace=wrap;html=1;fillColor=#262626;fontColor=#FFFFFF;strokeColor=none;" parent="1" vertex="1">
                    <mxGeometry x="110" y="380" width="40" height="50" as="geometry"/>
                </mxCell>
                <mxCell id="415" value="8" style="text;html=1;strokeColor=none;fillColor=none;align=center;verticalAlign=middle;whiteSpace=wrap;rounded=0;fontFamily=Klavika;fontSize=17;fontColor=#FFFFFF;" parent="1" vertex="1">
                    <mxGeometry x="117.5" y="390" width="25" height="30" as="geometry"/>
                </mxCell>
                <mxCell id="416" value="" style="rounded=0;whiteSpace=wrap;html=1;fillColor=#262626;fontColor=#FFFFFF;strokeColor=none;" parent="1" vertex="1">
                    <mxGeometry x="155" y="380" width="40" height="50" as="geometry"/>
                </mxCell>
                <mxCell id="417" value="2" style="text;html=1;strokeColor=none;fillColor=none;align=center;verticalAlign=middle;whiteSpace=wrap;rounded=0;fontFamily=Klavika;fontSize=17;fontColor=#FFFFFF;" parent="1" vertex="1">
                    <mxGeometry x="162.5" y="390" width="25" height="30" as="geometry"/>
                </mxCell>
                <mxCell id="418" value="" style="rounded=0;whiteSpace=wrap;html=1;fillColor=#262626;fontColor=#FFFFFF;strokeColor=none;" parent="1" vertex="1">
                    <mxGeometry x="200" y="380" width="40" height="50" as="geometry"/>
                </mxCell>
                <mxCell id="419" value="42" style="text;html=1;strokeColor=none;fillColor=none;align=center;verticalAlign=middle;whiteSpace=wrap;rounded=0;fontFamily=Klavika;fontSize=17;fontColor=#FFFFFF;" parent="1" vertex="1">
                    <mxGeometry x="207.5" y="390" width="25" height="30" as="geometry"/>
                </mxCell>
                <mxCell id="421" value="" style="rounded=0;whiteSpace=wrap;html=1;fillColor=#262626;fontColor=#FFFFFF;strokeColor=none;" parent="1" vertex="1">
                    <mxGeometry x="245" y="380" width="40" height="50" as="geometry"/>
                </mxCell>
                <mxCell id="422" value="42" style="text;html=1;strokeColor=none;fillColor=none;align=center;verticalAlign=middle;whiteSpace=wrap;rounded=0;fontFamily=Klavika;fontSize=17;fontColor=#FFFFFF;" parent="1" vertex="1">
                    <mxGeometry x="252.5" y="390" width="25" height="30" as="geometry"/>
                </mxCell>
                <mxCell id="426" value="" style="rounded=0;whiteSpace=wrap;html=1;fillColor=#262626;fontColor=#FFFFFF;strokeColor=none;" parent="1" vertex="1">
                    <mxGeometry x="290" y="380" width="40" height="50" as="geometry"/>
                </mxCell>
                <mxCell id="427" value="23" style="text;html=1;strokeColor=none;fillColor=none;align=center;verticalAlign=middle;whiteSpace=wrap;rounded=0;fontFamily=Klavika;fontSize=17;fontColor=#FFFFFF;" parent="1" vertex="1">
                    <mxGeometry x="297.5" y="390" width="25" height="30" as="geometry"/>
                </mxCell>
                <mxCell id="428" value="" style="rounded=0;whiteSpace=wrap;html=1;fillColor=#262626;fontColor=#FFFFFF;strokeColor=none;" parent="1" vertex="1">
                    <mxGeometry x="335" y="380" width="40" height="50" as="geometry"/>
                </mxCell>
                <mxCell id="429" value="10" style="text;html=1;strokeColor=none;fillColor=none;align=center;verticalAlign=middle;whiteSpace=wrap;rounded=0;fontFamily=Klavika;fontSize=17;fontColor=#FFFFFF;" parent="1" vertex="1">
                    <mxGeometry x="342.5" y="390" width="25" height="30" as="geometry"/>
                </mxCell>
                <mxCell id="430" value="" style="endArrow=classic;html=1;dashed=1;strokeColor=#FFFFFF;fontColor=#FFFFFF;entryX=0.5;entryY=0;entryDx=0;entryDy=0;exitX=0.5;exitY=1;exitDx=0;exitDy=0;" parent="1" source="373" target="406" edge="1">
                    <mxGeometry width="50" height="50" relative="1" as="geometry">
                        <mxPoint x="50" y="190" as="sourcePoint"/>
                        <mxPoint x="50" y="230" as="targetPoint"/>
                    </mxGeometry>
                </mxCell>
                <mxCell id="431" value="" style="endArrow=classic;html=1;dashed=1;strokeColor=#FFFFFF;fontColor=#FFFFFF;entryX=0.5;entryY=0;entryDx=0;entryDy=0;exitX=0.5;exitY=1;exitDx=0;exitDy=0;" parent="1" source="389" target="418" edge="1">
                    <mxGeometry width="50" height="50" relative="1" as="geometry">
                        <mxPoint x="60" y="200" as="sourcePoint"/>
                        <mxPoint x="60" y="240" as="targetPoint"/>
                    </mxGeometry>
                </mxCell>
                <mxCell id="432" value="" style="rounded=0;whiteSpace=wrap;html=1;fillColor=#C23555;fontColor=#FFFFFF;strokeColor=none;" parent="1" vertex="1">
                    <mxGeometry x="10" y="510" width="380" height="90" as="geometry"/>
                </mxCell>
                <mxCell id="433" value="&lt;font face=&quot;Klavika&quot; style=&quot;font-size: 17px;&quot;&gt;Shared&lt;/font&gt;" style="text;html=1;strokeColor=none;fillColor=none;align=center;verticalAlign=middle;whiteSpace=wrap;rounded=0;fontSize=17;fontColor=#FFFFFF;" parent="1" vertex="1">
                    <mxGeometry x="145" y="510" width="60" height="30" as="geometry"/>
                </mxCell>
                <mxCell id="434" value="" style="rounded=0;whiteSpace=wrap;html=1;fillColor=#262626;fontColor=#FFFFFF;strokeColor=none;" parent="1" vertex="1">
                    <mxGeometry x="20" y="540" width="40" height="50" as="geometry"/>
                </mxCell>
                <mxCell id="435" value="42" style="text;html=1;strokeColor=none;fillColor=none;align=center;verticalAlign=middle;whiteSpace=wrap;rounded=0;fontFamily=Klavika;fontSize=17;fontColor=#FFFFFF;" parent="1" vertex="1">
                    <mxGeometry x="27.5" y="550" width="25" height="30" as="geometry"/>
                </mxCell>
                <mxCell id="436" value="" style="endArrow=classic;html=1;dashed=1;strokeColor=#FFFFFF;fontColor=#FFFFFF;exitX=0.5;exitY=1;exitDx=0;exitDy=0;" parent="1" source="411" edge="1">
                    <mxGeometry width="50" height="50" relative="1" as="geometry">
                        <mxPoint x="450" y="530" as="sourcePoint"/>
                        <mxPoint x="40" y="540" as="targetPoint"/>
                    </mxGeometry>
                </mxCell>
                <mxCell id="437" value="" style="rounded=0;whiteSpace=wrap;html=1;fillColor=#262626;fontColor=#FFFFFF;strokeColor=none;" parent="1" vertex="1">
                    <mxGeometry x="65" y="540" width="40" height="50" as="geometry"/>
                </mxCell>
                <mxCell id="438" value="13" style="text;html=1;strokeColor=none;fillColor=none;align=center;verticalAlign=middle;whiteSpace=wrap;rounded=0;fontFamily=Klavika;fontSize=17;fontColor=#FFFFFF;" parent="1" vertex="1">
                    <mxGeometry x="72.5" y="550" width="25" height="30" as="geometry"/>
                </mxCell>
                <mxCell id="439" value="" style="rounded=0;whiteSpace=wrap;html=1;fillColor=#262626;fontColor=#FFFFFF;strokeColor=none;" parent="1" vertex="1">
                    <mxGeometry x="110" y="540" width="40" height="50" as="geometry"/>
                </mxCell>
                <mxCell id="440" value="8" style="text;html=1;strokeColor=none;fillColor=none;align=center;verticalAlign=middle;whiteSpace=wrap;rounded=0;fontFamily=Klavika;fontSize=17;fontColor=#FFFFFF;" parent="1" vertex="1">
                    <mxGeometry x="117.5" y="550" width="25" height="30" as="geometry"/>
                </mxCell>
                <mxCell id="441" value="" style="rounded=0;whiteSpace=wrap;html=1;fillColor=#262626;fontColor=#FFFFFF;strokeColor=none;" parent="1" vertex="1">
                    <mxGeometry x="155" y="540" width="40" height="50" as="geometry"/>
                </mxCell>
                <mxCell id="442" value="2" style="text;html=1;strokeColor=none;fillColor=none;align=center;verticalAlign=middle;whiteSpace=wrap;rounded=0;fontFamily=Klavika;fontSize=17;fontColor=#FFFFFF;" parent="1" vertex="1">
                    <mxGeometry x="162.5" y="550" width="25" height="30" as="geometry"/>
                </mxCell>
                <mxCell id="443" value="" style="rounded=0;whiteSpace=wrap;html=1;fillColor=#262626;fontColor=#FFFFFF;strokeColor=none;" parent="1" vertex="1">
                    <mxGeometry x="200" y="540" width="40" height="50" as="geometry"/>
                </mxCell>
                <mxCell id="444" value="42" style="text;html=1;strokeColor=none;fillColor=none;align=center;verticalAlign=middle;whiteSpace=wrap;rounded=0;fontFamily=Klavika;fontSize=17;fontColor=#FFFFFF;" parent="1" vertex="1">
                    <mxGeometry x="207.5" y="550" width="25" height="30" as="geometry"/>
                </mxCell>
                <mxCell id="445" value="" style="rounded=0;whiteSpace=wrap;html=1;fillColor=#262626;fontColor=#FFFFFF;strokeColor=none;" parent="1" vertex="1">
                    <mxGeometry x="245" y="540" width="40" height="50" as="geometry"/>
                </mxCell>
                <mxCell id="446" value="42" style="text;html=1;strokeColor=none;fillColor=none;align=center;verticalAlign=middle;whiteSpace=wrap;rounded=0;fontFamily=Klavika;fontSize=17;fontColor=#FFFFFF;" parent="1" vertex="1">
                    <mxGeometry x="252.5" y="550" width="25" height="30" as="geometry"/>
                </mxCell>
                <mxCell id="447" value="" style="rounded=0;whiteSpace=wrap;html=1;fillColor=#262626;fontColor=#FFFFFF;strokeColor=none;" parent="1" vertex="1">
                    <mxGeometry x="290" y="540" width="40" height="50" as="geometry"/>
                </mxCell>
                <mxCell id="448" value="23" style="text;html=1;strokeColor=none;fillColor=none;align=center;verticalAlign=middle;whiteSpace=wrap;rounded=0;fontFamily=Klavika;fontSize=17;fontColor=#FFFFFF;" parent="1" vertex="1">
                    <mxGeometry x="297.5" y="550" width="25" height="30" as="geometry"/>
                </mxCell>
                <mxCell id="449" value="" style="rounded=0;whiteSpace=wrap;html=1;fillColor=#262626;fontColor=#FFFFFF;strokeColor=none;" parent="1" vertex="1">
                    <mxGeometry x="335" y="540" width="40" height="50" as="geometry"/>
                </mxCell>
                <mxCell id="450" value="10" style="text;html=1;strokeColor=none;fillColor=none;align=center;verticalAlign=middle;whiteSpace=wrap;rounded=0;fontFamily=Klavika;fontSize=17;fontColor=#FFFFFF;" parent="1" vertex="1">
                    <mxGeometry x="342.5" y="550" width="25" height="30" as="geometry"/>
                </mxCell>
                <mxCell id="451" value="Thread IDs" style="text;strokeColor=none;fillColor=none;align=center;verticalAlign=middle;rounded=0;fontFamily=klavika;fontSize=17;fontColor=#FFFFFF;whiteSpace=wrap;rotation=0;" vertex="1" parent="1">
                    <mxGeometry x="400" y="140" width="62.5" height="30" as="geometry"/>
                </mxCell>
                <mxCell id="454" value="Data snapshot" style="text;strokeColor=none;fillColor=none;align=center;verticalAlign=middle;rounded=0;fontFamily=klavika;fontSize=17;fontColor=#FFFFFF;whiteSpace=wrap;rotation=0;" vertex="1" parent="1">
                    <mxGeometry x="400" y="50" width="62.5" height="50" as="geometry"/>
                </mxCell>
                <mxCell id="460" value="Thread IDs" style="text;strokeColor=none;fillColor=none;align=center;verticalAlign=middle;rounded=0;fontFamily=klavika;fontSize=17;fontColor=#FFFFFF;whiteSpace=wrap;rotation=0;" vertex="1" parent="1">
                    <mxGeometry x="400" y="300" width="62.5" height="30" as="geometry"/>
                </mxCell>
                <mxCell id="461" value="Data snapshot" style="text;strokeColor=none;fillColor=none;align=center;verticalAlign=middle;rounded=0;fontFamily=klavika;fontSize=17;fontColor=#FFFFFF;whiteSpace=wrap;rotation=0;" vertex="1" parent="1">
                    <mxGeometry x="400" y="210" width="62.5" height="50" as="geometry"/>
                </mxCell>
                <mxCell id="462" value="Thread IDs" style="text;strokeColor=none;fillColor=none;align=center;verticalAlign=middle;rounded=0;fontFamily=klavika;fontSize=17;fontColor=#FFFFFF;whiteSpace=wrap;rotation=0;" vertex="1" parent="1">
                    <mxGeometry x="400" y="460" width="62.5" height="30" as="geometry"/>
                </mxCell>
                <mxCell id="463" value="Data snapshot" style="text;strokeColor=none;fillColor=none;align=center;verticalAlign=middle;rounded=0;fontFamily=klavika;fontSize=17;fontColor=#FFFFFF;whiteSpace=wrap;rotation=0;" vertex="1" parent="1">
                    <mxGeometry x="400" y="370" width="62.5" height="50" as="geometry"/>
                </mxCell>
                <mxCell id="464" value="Data snapshot" style="text;strokeColor=none;fillColor=none;align=center;verticalAlign=middle;rounded=0;fontFamily=klavika;fontSize=17;fontColor=#FFFFFF;whiteSpace=wrap;rotation=0;" vertex="1" parent="1">
                    <mxGeometry x="400" y="530" width="62.5" height="50" as="geometry"/>
                </mxCell>
            </root>
        </mxGraphModel>
    </diagram>
</mxfile>